<svg width="133" height="28" viewBox="0 0 133 28" fill="none" xmlns="http://www.w3.org/2000/svg">
<path d="M12.516 24.056V14.368C12.516 12.744 12.5067 11.68 12.488 11.176C12.4507 10.4107 12.348 9.86 12.18 9.524C12.012 9.16933 11.7413 8.95467 11.368 8.88C10.9947 8.824 10.4627 8.796 9.772 8.796C8.96933 8.796 8.44667 8.83333 8.204 8.908V4.54C8.372 4.52133 8.624 4.512 8.96 4.512H9.772C11.8627 4.512 13.4773 4.68 14.616 5.016C15.7733 5.33333 16.6133 5.86533 17.136 6.612C17.6213 7.30267 17.92 8.208 18.032 9.328C18.1627 10.448 18.228 12.128 18.228 14.368C18.228 16.4027 18.144 18.008 17.976 19.184C17.8267 20.3413 17.472 21.3027 16.912 22.068L20.608 27.052V27.22H14.336L12.516 24.056ZM9.772 24.224C7.04667 24.224 5.08667 23.9253 3.892 23.328C3.276 23.0293 2.79067 22.628 2.436 22.124C2.08133 21.62 1.82 20.9947 1.652 20.248C1.50267 19.5947 1.40933 18.848 1.372 18.008C1.33467 17.1493 1.316 15.936 1.316 14.368C1.316 12.408 1.35333 10.9053 1.428 9.86C1.52133 8.81467 1.736 7.93733 2.072 7.228C2.44533 6.46267 3.01467 5.87467 3.78 5.464C4.54533 5.05333 5.628 4.77333 7.028 4.624V14.368C7.028 15.4693 7.04667 16.524 7.084 17.532C7.12133 18.2973 7.21467 18.8573 7.364 19.212C7.532 19.5667 7.80267 19.772 8.176 19.828C8.49333 19.9027 9.02533 19.94 9.772 19.94C10.5373 19.94 11.06 19.912 11.34 19.856V24.168C10.6307 24.2053 10.108 24.224 9.772 24.224ZM25.1508 24.196C23.4708 24.196 22.3414 23.6827 21.7628 22.656C21.5014 22.208 21.3241 21.6667 21.2308 21.032C21.1374 20.3787 21.0908 19.5853 21.0908 18.652V9.72H26.2708V16.468C26.2708 17.4573 26.2801 18.1107 26.2988 18.428C26.3361 18.8947 26.3921 19.2307 26.4668 19.436C26.5414 19.6413 26.6628 19.772 26.8308 19.828C26.9988 19.8653 27.2974 19.884 27.7268 19.884H28.0068V23.384C27.2788 23.9253 26.3268 24.196 25.1508 24.196ZM29.1828 9.72H34.3628V24H29.1828V9.72ZM43.461 15.46H45.421C45.421 14.4147 45.3184 13.7427 45.113 13.444C45.001 13.276 44.8517 13.1733 44.665 13.136C44.4784 13.08 44.2077 13.052 43.853 13.052H43.461V9.496H43.853C45.4584 9.496 46.6904 9.62667 47.549 9.888C48.4264 10.1493 49.0704 10.5787 49.481 11.176C49.8544 11.6987 50.0784 12.3707 50.153 13.192C50.2464 14.0133 50.293 15.2453 50.293 16.888V18.008H43.461V15.46ZM44.413 24.224C42.6957 24.224 41.3424 24.084 40.353 23.804C39.3824 23.5053 38.6544 23.0387 38.169 22.404C37.7397 21.844 37.4597 21.1533 37.329 20.332C37.1984 19.492 37.133 18.344 37.133 16.888C37.133 15.544 37.1797 14.48 37.273 13.696C37.3664 12.8933 37.5624 12.212 37.861 11.652C38.197 11.036 38.7104 10.56 39.401 10.224C40.1104 9.86933 41.0717 9.64533 42.285 9.552V18.008C42.285 18.6427 42.313 19.1 42.369 19.38C42.425 19.6413 42.5557 19.8373 42.761 19.968C42.985 20.1173 43.3304 20.2013 43.797 20.22C44.3944 20.2573 45.029 20.276 45.701 20.276C46.8957 20.276 47.7637 20.248 48.305 20.192L49.733 20.08V23.692C48.9864 23.916 47.9597 24.0653 46.653 24.14C46.0184 24.196 45.2717 24.224 44.413 24.224ZM63.723 13.612C63.3683 13.5933 62.883 13.5467 62.267 13.472C61.1096 13.36 60.1763 13.304 59.467 13.304H58.543V9.496C59.8683 9.496 61.1283 9.58933 62.323 9.776L63.723 10.028V13.612ZM59.663 19.66C59.663 19.38 59.6163 19.2027 59.523 19.128C59.4296 19.0533 59.2336 18.9973 58.935 18.96L55.911 18.54C55.1643 18.428 54.5576 18.2507 54.091 18.008C53.643 17.7653 53.307 17.4387 53.083 17.028C52.859 16.6733 52.7096 16.244 52.635 15.74C52.5603 15.236 52.523 14.6107 52.523 13.864C52.523 12.3333 52.9803 11.2133 53.895 10.504C54.6603 9.944 55.8176 9.61733 57.367 9.524V13.92C57.367 14.2 57.4043 14.3867 57.479 14.48C57.5536 14.5547 57.787 14.62 58.179 14.676L61.539 15.124C62.0243 15.18 62.4443 15.2827 62.799 15.432C63.1536 15.5627 63.4523 15.768 63.695 16.048C64.2363 16.6453 64.507 17.7933 64.507 19.492C64.507 21.284 64.0496 22.5347 63.135 23.244C62.3323 23.8413 61.175 24.1587 59.663 24.196V19.66ZM58.487 24.224C56.9936 24.2053 55.687 24.112 54.567 23.944L52.971 23.692V20.108C53.7176 20.1827 54.7256 20.2573 55.995 20.332C56.7043 20.3693 57.2083 20.388 57.507 20.388H58.487V24.224ZM65.8556 9.72H68.4876V5.576H73.6676V9.72H76.8036V13.668H65.8556V9.72ZM68.4876 14.788H73.6676V24H68.4876V14.788ZM78.1408 16.468L84.4128 4.736H90.5168L81.8088 20.276H78.1408V16.468ZM87.0728 20.276H83.1528L85.5608 15.992H87.1008L89.2008 12.156H92.5608V15.992H94.9128V20.276H92.5608V24H87.0728V20.276ZM107.073 14.368C107.073 12.744 107.064 11.68 107.045 11.176C107.008 10.392 106.933 9.84133 106.821 9.524C106.69 9.20667 106.485 9.01067 106.205 8.936C105.944 8.84267 105.496 8.796 104.861 8.796C104.581 8.796 104.236 8.81467 103.825 8.852V4.54C103.937 4.52133 104.105 4.512 104.329 4.512H104.861C106.821 4.512 108.333 4.68 109.397 5.016C110.461 5.33333 111.245 5.86533 111.749 6.612C112.216 7.30267 112.505 8.208 112.617 9.328C112.729 10.448 112.785 12.128 112.785 14.368C112.785 16.384 112.738 17.9147 112.645 18.96C112.57 20.0053 112.365 20.8827 112.029 21.592C111.656 22.376 111.077 22.9733 110.293 23.384C109.528 23.776 108.454 24.028 107.073 24.14V14.368ZM104.861 24.224C102.92 24.224 101.408 24.0653 100.325 23.748C99.2611 23.412 98.4771 22.8613 97.9731 22.096C97.5064 21.4053 97.2171 20.5093 97.1051 19.408C96.9931 18.3067 96.9371 16.6267 96.9371 14.368C96.9371 12.352 96.9744 10.8213 97.0491 9.776C97.1424 8.73067 97.3571 7.85333 97.6931 7.144C98.0664 6.36 98.6358 5.772 99.4011 5.38C100.185 4.96933 101.268 4.708 102.649 4.596V14.368C102.649 15.9733 102.658 17.028 102.677 17.532C102.714 18.2787 102.798 18.8387 102.929 19.212C103.06 19.5293 103.256 19.7347 103.517 19.828C103.778 19.9027 104.226 19.94 104.861 19.94H105.421C105.552 19.94 105.71 19.9213 105.897 19.884V24.196C105.785 24.2147 105.617 24.224 105.393 24.224H104.861ZM114.945 16.468L121.217 4.736H127.321L118.613 20.276H114.945V16.468ZM123.877 20.276H119.957L122.365 15.992H123.905L126.005 12.156H129.365V15.992H131.717V20.276H129.365V24H123.877V20.276Z" fill="#E4572E"/>
</svg>
