<svg width="25" height="24" viewBox="0 0 25 24" fill="none" xmlns="http://www.w3.org/2000/svg">
<g clip-path="url(#clip0_1_210)">
<mask id="mask0_1_210" style="mask-type:luminance" maskUnits="userSpaceOnUse" x="0" y="0" width="25" height="24">
<path d="M24.3333 0H0.333344V24H24.3333V0Z" fill="white"/>
</mask>
<g mask="url(#mask0_1_210)">
<path d="M12.3333 9.81835V14.4657H18.7915C18.5079 15.9602 17.6569 17.2257 16.3805 18.0766L20.2751 21.0984C22.5442 19.004 23.8533 15.9276 23.8533 12.273C23.8533 11.4222 23.7769 10.6039 23.6351 9.8185L12.3333 9.81835Z" fill="#4285F4"/>
<path d="M5.60794 14.2842L4.72959 14.9566L1.62045 17.3784C3.59499 21.2947 7.64194 24.0002 12.3328 24.0002C15.5727 24.0002 18.2891 22.9311 20.2746 21.0984L16.38 18.0766C15.3109 18.7966 13.9473 19.233 12.3328 19.233C9.21284 19.233 6.56204 17.1275 5.61284 14.2911L5.60794 14.2842Z" fill="#34A853"/>
<path d="M1.62052 6.6216C0.802385 8.23605 0.333344 10.0579 0.333344 11.9997C0.333344 13.9414 0.802385 15.7633 1.62052 17.3778C1.62052 17.3886 5.61329 14.2796 5.61329 14.2796C5.37334 13.5596 5.23146 12.796 5.23146 11.9995C5.23146 11.2031 5.37334 10.4395 5.61329 9.7195L1.62052 6.6216Z" fill="#FBBC05"/>
<path d="M12.3331 4.77818C14.1004 4.77818 15.6713 5.38905 16.9259 6.56725L20.3622 3.13095C18.2785 1.18916 15.5732 0 12.3331 0C7.64229 0 3.59505 2.69454 1.62051 6.62185L5.61319 9.72C6.56224 6.8836 9.21314 4.77818 12.3331 4.77818Z" fill="#EA4335"/>
</g>
</g>
<defs>
<clipPath id="clip0_1_210">
<rect width="24" height="24" fill="white" transform="translate(0.333344)"/>
</clipPath>
</defs>
</svg>
