<svg width="25" height="24" viewBox="0 0 25 24" fill="none" xmlns="http://www.w3.org/2000/svg">
<g clip-path="url(#clip0_1_227)">
<mask id="mask0_1_227" style="mask-type:luminance" maskUnits="userSpaceOnUse" x="0" y="0" width="25" height="24">
<path d="M24.6666 0H0.666626V24H24.6666V0Z" fill="white"/>
</mask>
<g mask="url(#mask0_1_227)">
<path d="M24.6666 12C24.6666 5.37265 19.294 0 12.6666 0C6.03928 0 0.666626 5.37265 0.666626 12C0.666626 17.6275 4.54119 22.3498 9.76793 23.6467V15.6672H7.29353V12H9.76793V10.4199C9.76793 6.3355 11.6164 4.4424 15.6263 4.4424C16.3866 4.4424 17.6985 4.59168 18.2351 4.74048V8.0645C17.9519 8.0347 17.4599 8.01985 16.8489 8.01985C14.8813 8.01985 14.121 8.7653 14.121 10.703V12H18.0407L17.3673 15.6672H14.121V23.9121C20.0629 23.1945 24.6666 18.1353 24.6666 12Z" fill="#0866FF"/>
<path d="M17.3673 15.6672L18.0408 12H14.1211V10.703C14.1211 8.76525 14.8814 8.0198 16.8489 8.0198C17.46 8.0198 17.952 8.0347 18.2352 8.06445V4.74046C17.6985 4.59118 16.3867 4.44238 15.6264 4.44238C11.6164 4.44238 9.76798 6.3355 9.76798 10.4198V12H7.29358V15.6672H9.76798V23.6467C10.6963 23.8771 11.6673 24 12.6667 24C13.1587 24 13.644 23.9697 14.1206 23.9121V15.6672H17.3668H17.3673Z" fill="white"/>
</g>
</g>
<defs>
<clipPath id="clip0_1_227">
<rect width="24" height="24" fill="white" transform="translate(0.666626)"/>
</clipPath>
</defs>
</svg>
